<?xml version="1.0" encoding="utf-8"?>

<!DOCTYPE svg PUBLIC "-//W3C//DTD SVG 1.1//EN" "http://www.w3.org/Graphics/SVG/1.1/DTD/svg11.dtd">

<svg height="800px" width="800px" version="1.1" id="_x32_" xmlns="http://www.w3.org/2000/svg" xmlns:xlink="http://www.w3.org/1999/xlink" 
	 viewBox="0 0 512 512"  xml:space="preserve">
<style type="text/css">
	.st0{fill:#000000;}
</style>
<g>
	<path class="st0" d="M301.437,143.711c-13.54-6.522-29.247-9.982-45.427-9.982c-21.69,0.019-42.254,6.179-57.923,17.334
		c-8.07,5.774-14.466,12.593-18.998,20.25c-4.917,8.267-7.518,17.52-7.508,26.763c-0.01,9.224,2.591,18.467,7.508,26.735
		c6.74,11.361,17.619,20.91,31.474,27.611c13.52,6.513,29.238,9.972,45.448,9.982c21.659-0.019,42.224-6.179,57.902-17.343
		c8.062-5.755,14.457-12.564,19.009-20.25c4.927-8.268,7.518-17.521,7.499-26.725c0.019-9.223-2.572-18.476-7.499-26.764
		C326.161,159.941,315.272,150.393,301.437,143.711z M308.61,210.415c-3.823,6.484-10.73,12.357-19.452,16.555
		c-9.706,4.7-21.166,7.174-33.248,7.174c-15.619,0-30.706-4.396-41.407-12.072c-4.789-3.42-8.622-7.45-11.106-11.668
		c-2.384-4.03-3.558-8.06-3.558-12.318c0-4.287,1.174-8.337,3.558-12.376c3.813-6.474,10.721-12.358,19.442-16.556
		c9.707-4.69,21.147-7.163,33.1-7.163h0.168c15.599,0,30.676,4.394,41.388,12.061c4.789,3.42,8.622,7.45,11.106,11.658
		c2.394,4.06,3.557,8.1,3.557,12.366C312.158,202.324,311.006,206.364,308.61,210.415z"/>
	<path class="st0" d="M367.125,116.091c-29.839-21.294-69.294-33.031-111.115-33.05c-41.832,0.019-81.297,11.756-111.135,33.041
		c-31.012,22.102-48.088,51.94-48.088,84.036c0,32.046,17.076,61.874,48.088,83.967c29.848,21.294,69.324,33.03,111.135,33.051
		c41.8-0.02,81.267-11.756,111.115-33.041c31.01-22.104,48.088-51.931,48.088-83.977
		C415.213,168.032,398.136,138.184,367.125,116.091z M353.625,265.204c-25.886,18.515-60.514,28.715-97.517,28.715l-0.098,4.04
		v-4.04h-0.099c-37.012,0-71.649-10.2-97.536-28.715c-24.744-17.727-38.372-40.846-38.372-65.087
		c0-24.281,13.628-47.418,38.372-65.146c25.876-18.515,60.514-28.715,97.733-28.715c37.002,0,71.63,10.2,97.507,28.715
		c24.763,17.737,38.392,40.875,38.382,65.146C392.006,224.358,378.378,247.466,353.625,265.204z"/>
	<polygon class="st0" points="392.784,39.85 395.189,41.022 395.367,41.101 	"/>
	<path class="st0" d="M490.026,123.906c-20.882-35.18-54.286-63.284-94.649-82.795l-0.188-0.089
		c-40.402-19.452-88.136-30.459-139.179-30.478H256c-68.161,0.049-130.429,19.56-177.197,52.877l-0.009,0.01
		c-23.375,16.703-42.926,37.022-56.819,60.475C8.07,147.328-0.01,174.033,0,202.117v107.775c-0.01,28.074,8.07,54.769,21.974,78.212
		c20.891,35.179,54.297,63.273,94.659,82.795C157.075,490.4,204.867,501.436,256,501.456h0.01
		c68.151-0.06,130.428-19.542,177.196-52.878l2.74-1.961l-2.74,1.952c23.374-16.693,42.925-37.012,56.819-60.465
		c13.904-23.433,21.984-50.128,21.974-78.212V202.117C512.01,174.033,503.93,147.328,490.026,123.906z M455.3,259.754
		c-15.866,26.853-42.906,50.335-77.474,67.018c-34.558,16.693-76.536,26.548-121.816,26.548
		c-60.386,0.02-114.89-17.56-153.754-45.368c-19.443-13.894-34.963-30.291-45.556-48.197
		c-10.603-17.924-16.319-37.297-16.338-57.637c0.019-10.179,1.448-20.122,4.208-29.739c2.699-9.44,6.71-18.566,11.854-27.364
		l0.276-0.533l0.01-0.029l0.147-0.217c2.345-3.941,4.987-7.785,7.795-11.569c0.877-1.162,1.803-2.306,2.709-3.468
		c2.198-2.769,4.514-5.49,6.958-8.16c1.034-1.143,2.049-2.286,3.133-3.41c3.321-3.439,6.8-6.809,10.505-10.051l1.024-0.877
		c3.726-3.203,7.686-6.277,11.786-9.273c1.379-0.985,2.798-1.951,4.198-2.916c3.183-2.208,6.464-4.336,9.834-6.395
		c1.498-0.916,2.976-1.843,4.514-2.72c4.671-2.7,9.47-5.312,14.476-7.736l0.394-0.207l0.434-0.197
		c5.056-2.424,10.298-4.661,15.658-6.789c1.606-0.64,3.252-1.232,4.888-1.852c4.179-1.557,8.436-3.016,12.762-4.386
		c1.685-0.532,3.36-1.084,5.075-1.586c11.786-3.469,24.103-6.218,36.845-8.18c1.892-0.286,3.813-0.522,5.724-0.778
		c4.73-0.641,9.53-1.163,14.368-1.567c1.99-0.178,3.96-0.355,5.952-0.493c6.631-0.434,13.322-0.719,20.122-0.719h0.009
		c6.77,0,13.442,0.286,20.053,0.719c2.04,0.138,4.05,0.325,6.07,0.493c4.789,0.414,9.529,0.926,14.21,1.557
		c1.952,0.256,3.922,0.502,5.854,0.798c12.742,1.961,25.049,4.71,36.815,8.179c1.695,0.493,3.341,1.035,5.006,1.567
		c4.376,1.38,8.672,2.858,12.89,4.435c1.596,0.592,3.202,1.173,4.769,1.793c5.498,2.188,10.879,4.474,16.052,6.966l0.089,0.04h-0.01
		l0.266,0.138c5.085,2.464,9.952,5.114,14.712,7.864c1.429,0.818,2.808,1.685,4.198,2.533c3.558,2.168,7.007,4.405,10.347,6.72
		c1.242,0.867,2.493,1.714,3.715,2.591c8.701,6.337,16.594,13.165,23.591,20.429c1.005,1.034,1.951,2.099,2.916,3.153
		c2.504,2.749,4.888,5.557,7.145,8.414c0.877,1.104,1.783,2.208,2.61,3.341c2.809,3.774,5.44,7.607,7.785,11.538l0.198,0.306
		c2.414,4.07,4.493,8.248,6.394,12.475l0.622,1.213c1.872,4.306,3.41,8.71,4.729,13.155l0.384,1.044
		c2.759,9.628,4.188,19.561,4.208,29.749C471.617,222.457,465.902,241.83,455.3,259.754z"/>
</g>
</svg>