<svg id="Layer_1" data-name="Layer 1" xmlns="http://www.w3.org/2000/svg" viewBox="0 0 64 64"><path d="M54.05,58.85H10.11a7.38,7.38,0,0,1-5.59-2.16c-2.45-2.56-2.3-6.43-2.3-6.6A3.73,3.73,0,0,1,6,46.39a.75.75,0,1,1,0,1.5,2.24,2.24,0,0,0-2.23,2.24c0,.07-.12,3.44,1.89,5.53a6,6,0,0,0,4.5,1.69H54.05a6,6,0,0,0,4.5-1.69c2-2.09,1.89-5.47,1.89-5.5a2.25,2.25,0,0,0-2.23-2.27.75.75,0,1,1,0-1.5,3.74,3.74,0,0,1,3.73,3.74,9.78,9.78,0,0,1-2.3,6.56A7.41,7.41,0,0,1,54.05,58.85Z"/><path d="M59,35.54a.75.75,0,0,1-.18-1.48,2.29,2.29,0,0,0,1.62-2.31c0-1.12-1.74-2.12-2.17-2.14a.78.78,0,0,1-.73-.77.73.73,0,0,1,.73-.73,4.14,4.14,0,0,1,2.2,1,3.49,3.49,0,0,1,1.47,2.64,3.78,3.78,0,0,1-2.76,3.77Z"/><path d="M5.43,35.33h0a3.62,3.62,0,0,1-3.35-3.58C2.06,30,3.5,28,5.43,28a.75.75,0,0,1,0,1.5c-1,0-1.87,1.23-1.87,2.25a2.14,2.14,0,0,0,1.9,2.08.74.74,0,0,1,.72.77A.75.75,0,0,1,5.43,35.33Z"/><path d="M56.45,29.92H7.55a6.31,6.31,0,0,1-6.3-6.31c0-10,14.08-18.46,30.75-18.46s30.75,8.46,30.75,18.46A6.31,6.31,0,0,1,56.45,29.92ZM32,6.65c-15.85,0-29.25,7.77-29.25,17a4.81,4.81,0,0,0,4.8,4.81h48.9a4.81,4.81,0,0,0,4.8-4.81C61.25,14.42,47.85,6.65,32,6.65Z"/><path d="M11.26,16.9a.75.75,0,0,1-.45-1.35A33.53,33.53,0,0,1,25.64,10a.75.75,0,0,1,.85.64.76.76,0,0,1-.64.85A31.86,31.86,0,0,0,11.7,16.76.72.72,0,0,1,11.26,16.9Z"/><path d="M57,43.39a.75.75,0,0,1,0-1.5,3.5,3.5,0,0,0,2.54-1,3.36,3.36,0,0,0,.87-2.45,3.85,3.85,0,0,0-2-3.16,2.44,2.44,0,0,0-2,1.14,3.88,3.88,0,0,1-3.17,1.66h-.06c-3.82-.05-4.79-1.82-5.5-3.12A5.19,5.19,0,0,0,47,34a2.73,2.73,0,0,0-.3-.3,9.46,9.46,0,0,0-.39,1.11c-.39,1.27-.91,3-2.37,3.68-2,.95-3.12-1.09-3.77-2.3-.24-.45-.68-1.27-.91-1.34l-.14.08A13.27,13.27,0,0,0,37,37.23c-1.48,1.88-3.16,4-5.18,3.58-1.13-.25-2.34-1.42-3.75-2.77s-3.05-2.95-4.28-3.1c-.62-.08-1.16.37-2,1.13-1.3,1.2-3.26,3-6.54.14C12.58,34,9.47,33.4,6.76,34.67c-2.08,1-3.2,2.7-3.2,3.82a3.37,3.37,0,0,0,1,2.41,3.42,3.42,0,0,0,2.41,1,.75.75,0,0,1,0,1.5A4.94,4.94,0,0,1,3.5,42a4.87,4.87,0,0,1-1.44-3.47c0-1.92,1.67-4.05,4.06-5.17,3.25-1.53,7-.9,10.15,1.74,2.28,2,3.23,1.12,4.55-.09.85-.79,1.82-1.69,3.17-1.52,1.73.22,3.47,1.89,5.14,3.51,1.09,1,2.31,2.23,3,2.38,1.1.26,2.47-1.5,3.68-3a13.47,13.47,0,0,1,2.38-2.58,1.66,1.66,0,0,1,1.36-.33c.88.2,1.37,1.12,1.89,2.09.86,1.61,1.21,1.93,1.81,1.65.86-.39,1.25-1.7,1.57-2.75s.62-2.05,1.48-2.24A2,2,0,0,1,48.1,33a6.6,6.6,0,0,1,.85,1.3c.68,1.24,1.26,2.3,4.21,2.34a2.49,2.49,0,0,0,2.09-1.15,3.9,3.9,0,0,1,3.16-1.65c1.16,0,3.5,2,3.53,4.65A4.76,4.76,0,0,1,60.63,42,5,5,0,0,1,57,43.39Z"/><path d="M38.79,53.37a.74.74,0,0,1-.51-.2l-5.72-5.28H5.06a3,3,0,0,1,0-6H58.94a2.92,2.92,0,0,1,3,3,3,3,0,0,1-3,3H44.11l-4.77,5.24a.77.77,0,0,1-.52.24Zm-33.73-10a1.5,1.5,0,0,0-1.5,1.5,1.53,1.53,0,0,0,1.5,1.5h27.8a.79.79,0,0,1,.51.2l5.37,5,4.49-4.92a.73.73,0,0,1,.55-.25H58.94a1.5,1.5,0,0,0,1.5-1.5,1.41,1.41,0,0,0-1.5-1.5Z"/></svg>