<?xml version="1.0" encoding="utf-8"?>

<!DOCTYPE svg PUBLIC "-//W3C//DTD SVG 1.1//EN" "http://www.w3.org/Graphics/SVG/1.1/DTD/svg11.dtd">

<svg height="800px" width="800px" version="1.1" id="_x32_" xmlns="http://www.w3.org/2000/svg" xmlns:xlink="http://www.w3.org/1999/xlink" 
	 viewBox="0 0 512 512"  xml:space="preserve">
<style type="text/css">
	.st0{fill:#000000;}
</style>
<g>
	<path class="st0" d="M454.549,310.782c0.635-3.882,0.953-7.871,0.953-11.97c0-39.295-29.87-71.648-68.146-75.522
		c2.963-8.127,4.59-16.882,4.59-25.993c0-38.559-28.746-70.448-66.032-75.25c1.623-6.106,2.472-12.566,2.472-19.206
		c0-41.914-33.969-75.918-75.918-75.918c-41.913,0-75.916,34.004-75.916,75.918c0,6.654,0.91,13.1,2.522,19.252
		c-37.266,4.834-66.071,36.622-66.071,75.204c0,9.142,1.701,17.873,4.66,25.985c-38.307,3.851-68.228,36.219-68.228,75.53
		c0,4.804,0.458,9.498,1.306,14.023C21.185,323.217,0,351.356,0,384.437c0,41.914,34.003,75.924,75.917,75.924
		c17.3,0,33.229-5.795,46.009-15.541c12.748,23.94,37.958,40.255,66.984,40.255c26.636,0,50.014-13.736,63.564-34.476
		c13.554,20.74,36.94,34.476,63.557,34.476c30.726,0,57.114-18.284,69.06-44.516c13.484,12.256,31.342,19.802,50.994,19.802
		c41.949,0,75.917-34.011,75.917-75.924C512,348.923,487.564,319.01,454.549,310.782z M56.498,387.97
		c-12.679,0-22.952-10.273-22.952-22.948c0-12.674,10.273-22.948,22.952-22.948c2.576,0,5.047,0.419,7.344,1.224
		c7.062,2.371,12.566,8.058,14.65,15.232c0.639,2.045,0.958,4.23,0.958,6.492C79.45,377.697,69.173,387.97,56.498,387.97z
		 M105.93,302.345c-12.674,0-22.951-10.273-22.951-22.948c0-12.674,10.277-22.955,22.951-22.955
		c12.675,0,22.952,10.281,22.952,22.955C128.882,292.072,118.605,302.345,105.93,302.345z M169.491,412.692
		c-8.336,0-15.646-4.454-19.636-11.087c-2.115-3.463-3.316-7.522-3.316-11.869c0-5.26,1.798-10.133,4.765-14.015
		c4.203-5.438,10.769-8.932,18.187-8.932c12.674,0,22.951,10.273,22.951,22.947C192.442,402.411,182.165,412.692,169.491,412.692z
		 M169.498,200.823c-12.674,0-22.951-10.273-22.951-22.948c0-12.675,10.277-22.948,22.951-22.948
		c12.679,0,22.952,10.273,22.952,22.948C192.45,190.55,182.177,200.823,169.498,200.823z M233.046,316.469
		c-12.675,0-22.952-10.281-22.952-22.956c0-12.674,10.277-22.947,22.952-22.947c12.678,0,22.952,10.273,22.952,22.947
		C255.998,306.188,245.725,316.469,233.046,316.469z M233.046,106.375c-12.675,0-22.952-10.281-22.952-22.956
		c0-12.674,10.277-22.948,22.952-22.948c12.678,0,22.952,10.274,22.952,22.948C255.998,96.094,245.725,106.375,233.046,106.375z
		 M296.606,412.692c-12.674,0-22.952-10.281-22.952-22.956c0-1.379,0.105-2.711,0.353-4.02c1.906-10.777,11.3-18.927,22.599-18.927
		c2.755,0,5.439,0.496,7.872,1.41c8.793,3.207,15.08,11.652,15.08,21.537C319.558,402.411,309.281,412.692,296.606,412.692z
		 M296.606,200.823c-12.674,0-22.952-10.273-22.952-22.948c0-0.744,0.035-1.48,0.105-2.185
		c1.096-11.652,10.912-20.763,22.847-20.763c3.285,0,6.392,0.706,9.216,1.937c8.085,3.532,13.736,11.622,13.736,21.011
		C319.558,190.55,309.281,200.823,296.606,200.823z M360.166,302.345c-12.674,0-22.951-10.273-22.951-22.948
		c0-3.564,0.809-6.926,2.258-9.924c3.672-7.701,11.583-13.031,20.694-13.031c1.057,0,2.115,0.07,3.142,0.247
		c11.192,1.518,19.81,11.087,19.81,22.708C383.118,292.072,372.841,302.345,360.166,302.345z M416.66,387.97
		c-9.816,0-18.218-6.174-21.468-14.86c-0.954-2.51-1.484-5.229-1.484-8.088c0-2.758,0.496-5.407,1.379-7.84c0.035,0,0.035,0,0.035,0
		c3.176-8.824,11.617-15.108,21.537-15.108c1.697,0,3.359,0.171,4.944,0.527c5.294,1.162,9.924,4.168,13.174,8.298
		c2.998,3.882,4.834,8.824,4.834,14.124C439.612,377.697,429.339,387.97,416.66,387.97z"/>
</g>
</svg>