<?xml version="1.0" encoding="utf-8"?>

<!DOCTYPE svg PUBLIC "-//W3C//DTD SVG 1.1//EN" "http://www.w3.org/Graphics/SVG/1.1/DTD/svg11.dtd">

<svg height="800px" width="800px" version="1.1" id="_x32_" xmlns="http://www.w3.org/2000/svg" xmlns:xlink="http://www.w3.org/1999/xlink" 
	 viewBox="0 0 512 512"  xml:space="preserve">
<style type="text/css">
	.st0{fill:#000000;}
</style>
<g>
	<path class="st0" d="M256,0C114.81,0.021,0.022,114.81,0,256c0.022,141.19,114.81,255.979,256,256
		c141.19-0.021,255.979-114.81,256-256C511.979,114.81,397.19,0.021,256,0z M354.373,229.599c0,51-44.443,92.345-99.274,92.345
		c-54.824,0-99.268-41.345-99.268-92.345c0-51.008,44.444-92.352,99.268-92.352C309.93,137.246,354.373,178.591,354.373,229.599z
		 M65.064,176.282c17.056-51.134,56.014-92.155,105.81-112c5.549-2.212,11.838,0.492,14.049,6.042
		c2.211,5.549-0.5,11.844-6.049,14.056c-43.859,17.464-78.289,53.718-93.289,98.746c-1.887,5.67-8.014,8.733-13.684,6.838
		C66.24,188.078,63.169,181.95,65.064,176.282z M256,479.549c-93.711,0-173.909-57.69-207.141-139.464
		c9.676,9.106,21.733,15.718,34.613,16.711c45.514,3.486,26.542,64.472,79.641,57.5c74.746-9.81,51.204,27.88,92.922,27.88
		c41.726,0,17.662-33.415,92.923-27.88c47.408,3.486,22.753-59.246,79.648-57.5c11.127,0.338,21.598-4.373,30.479-11.62
		c2.704-4.612,5.183-9.359,7.528-14.176C435.782,417.564,353.142,479.549,256,479.549z"/>
</g>
</svg>