<?xml version="1.0" encoding="utf-8"?>

<!DOCTYPE svg PUBLIC "-//W3C//DTD SVG 1.1//EN" "http://www.w3.org/Graphics/SVG/1.1/DTD/svg11.dtd">

<svg height="800px" width="800px" version="1.1" id="_x32_" xmlns="http://www.w3.org/2000/svg" xmlns:xlink="http://www.w3.org/1999/xlink" 
	 viewBox="0 0 512 512"  xml:space="preserve">
<style type="text/css">
	.st0{fill:#000000;}
</style>
<g>
	<path class="st0" d="M94.222,224.69l-0.091-0.064c-0.027-0.018-0.055-0.018-0.072-0.036L94.222,224.69z"/>
	<path class="st0" d="M475.413,189.697c-12.079-41.95-34.348-79.631-63.946-110.066l0.008,0.019
		c-0.917-0.954-1.843-1.871-2.706-2.734C376.918,45.02,336.83,21.279,292.02,9.146C270.041,3.17,246.918,0,223.087,0
		c-23.604,0-47.344,2.434-70.095,7.756c-10.735,2.525-21.279,5.704-31.496,9.527C89.717,29.199,61,47.944,39.82,74.772
		c-4.94,6.231-8.364,13.06-10.49,19.99v-0.028c-2.161,6.921-3.015,13.86-3.015,20.508c0.082,18.318,6.148,34.748,11.78,46.836
		c2.843,6.077,5.676,11.072,7.846,14.659c1.09,1.789,2.008,3.224,2.688,4.26c0.663,0.999,1.163,1.726,1.163,1.726l0.19,0.281
		l0.137,0.154c0.363,0.463,2.724,3.588,6.394,7.901c3.768,4.432,8.982,10.209,15.194,16.112
		c6.384,6.076,13.886,12.333,22.323,17.401l0.1,0.054c4.205,2.47,8.673,4.714,13.541,6.367c4.859,1.662,10.136,2.779,15.739,2.779
		l0.236-0.009c7.457-0.008,15.34-2.215,22.16-6.966c9.664-6.712,19.263-12.224,30.298-16.22c6.357-2.262,13.151-4.023,20.844-5.122
		c5.703-0.818,11.842-1.271,18.591-1.271c15.067,0,29.289,3.314,42.022,9.29h0.018c10.598,4.923,20.226,11.707,28.426,19.917
		l2.153,2.252l-0.019-0.027c10.954,11.616,19.091,25.82,23.432,41.605c2.37,8.492,3.634,17.392,3.634,26.665
		c0,4.45-0.291,8.818-0.863,13.078l-0.009,0.036c-1.416,11.053-4.686,21.552-9.472,31.134l-0.01,0.009
		c-4.078,8.292-9.355,15.948-15.539,22.778c-4.368,4.814-9.218,9.182-14.422,13.005l-0.027,0.019
		c-8.11,6.049-17.138,10.862-26.874,14.204c-7.12,2.452-14.558,4.124-22.305,4.886c-1.19,0.128-2.316,0.191-3.424,0.191
		c-6.829-0.018-12.523-2.188-17.909-5.813c-5.387-3.606-10.346-8.728-15.15-14.312c-6.293-7.112-10.462-19.608-18.972-29.998
		l-0.018-0.018c-4.178-4.968-9.028-9.681-15.032-13.369c-6.076-3.751-13.459-6.257-21.497-6.257h-0.1l-2.344,0.09l-0.09,0.009
		c-5.749,0.354-11.28,1.762-16.248,4.196c-7.529,3.714-13.369,9.736-17.066,16.729c-3.66,6.966-5.268,14.712-5.268,22.578
		c0,0.872,0.128,1.699,0.173,2.561c-5.486,0.182-10.754,1.09-15.54,2.916c-8.047,3.097-14.658,8.465-19.072,15.158
		c-4.432,6.702-6.648,14.513-6.648,22.387c0,13.096,6.103,26.33,17.337,36.138c12.197,10.653,26.22,18.654,40.316,24.84
		c21.279,9.3,65.653,22.968,83.228,26.301c15.349,2.87,26.41,3.806,28.971,4.006l0.328,0.045l0.164,0.028l0.208,0.018
		c5.694,0.381,11.371,0.545,16.993,0.545c14.395,0,28.535-1.226,42.295-3.596c22.188-3.815,43.367-10.571,63.066-19.899
		c25.874-12.188,49.279-28.754,69.223-48.879c8.265-8.319,15.957-17.274,22.978-26.72c17.756-23.912,31.315-51.25,39.643-80.92
		c6.176-21.979,9.454-45.256,9.454-69.396C485.685,237.287,482.098,212.856,475.413,189.697z M190.982,178.253
		c-8.756,1.372-16.812,3.478-24.286,6.203c-13.995,5.022-25.874,12.016-36.745,19.517c-2.18,1.48-3.988,1.944-6.54,2.016
		c-1.88,0-4.159-0.4-6.775-1.271c-4.496-1.544-9.862-4.632-15.058-8.519c-7.82-5.84-15.303-13.424-20.707-19.463
		c-2.716-3.024-4.896-5.667-6.375-7.547c-0.736-0.909-1.345-1.644-1.708-2.144l-0.409-0.509c-0.227-0.363-4.868-7.074-9.354-16.738
		c-4.659-9.899-8.964-22.877-8.928-34.557c0-4.296,0.572-8.428,1.744-12.279c1.208-3.851,3.061-7.484,5.803-11.008
		c17.411-22.106,41.569-38.145,69.651-48.68c8.791-3.324,17.918-6.066,27.346-8.282l0.463-0.109l0.173,0.835
		c8.374,39.489,22.913,102.664,32.014,141.816l0.163,0.646L190.982,178.253z M273.646,481.502
		c-11.28,1.808-22.841,2.716-34.62,2.716c-5.04,0-10.072-0.172-15.167-0.499h-0.164c-1.326-0.109-9.727-0.818-21.824-2.888
		c3.896-13.914,9.654-34.73,14.041-50.642c1.808,0.6,3.796,0.981,5.894,0.981h0.408l0.373-0.027c0.027,0,0.936-0.072,2.144-0.136
		c1.171-0.1,2.588-0.2,3.723-0.309c9.627-0.972,18.954-3.006,27.81-5.994l0.309-0.118l0.091,0.327l17.201,56.227l0.09,0.3
		L273.646,481.502z M306.596,213.601l-0.482,0.627l-0.263-0.282l-0.2-0.2c-11.979-12.016-26.401-21.642-42.44-28.118l-0.509-0.191
		l0.1-0.6L286.48,37.337l0.136-0.836l0.517,0.136c39.08,11.044,74.01,31.977,101.991,59.923c1.572,1.58,3.116,3.179,4.623,4.795
		l0.263,0.282l-0.391,0.499L306.596,213.601z M411.566,399.874c-5.468,7.111-11.38,13.822-17.683,20.161
		c-18.518,18.655-40.36,33.913-64.546,44.857l-0.164,0.073l-0.172-0.263l-38.427-57.399l-0.199-0.282l0.145-0.099
		c7.011-5.104,13.487-10.899,19.317-17.31c7.956-8.719,14.731-18.592,19.998-29.326l0.101-0.208l0.508,0.244l80.912,39.19
		l0.345,0.173L411.566,399.874z M448.24,328.752l-0.137,0.391l-0.444-0.036l-105.126-9.1l-0.544-0.055l0.054-0.391
		c0.646-5.14,0.945-10.371,0.945-15.675c0-13.723-2.144-26.964-6.176-39.353l-0.172-0.5l0.618-0.345l112.163-61.422l0.545-0.29
		l0.145,0.526c5.105,19.164,7.783,39.289,7.783,60.088C457.894,285.775,454.506,307.945,448.24,328.752z"/>
</g>
</svg>