<?xml version="1.0" encoding="UTF-8" standalone="no"?>
<svg
   xmlns:dc="http://purl.org/dc/elements/1.1/"
   xmlns:cc="http://creativecommons.org/ns#"
   xmlns:rdf="http://www.w3.org/1999/02/22-rdf-syntax-ns#"
   xmlns:svg="http://www.w3.org/2000/svg"
   xmlns="http://www.w3.org/2000/svg"
   xmlns:sodipodi="http://sodipodi.sourceforge.net/DTD/sodipodi-0.dtd"
   xmlns:inkscape="http://www.inkscape.org/namespaces/inkscape"
   inkscape:export-ydpi="576"
   inkscape:export-xdpi="576"
   inkscape:export-filename="E:\Filedline\1 - Pizza.png"
   width="64pt"
   height="64pt"
   viewBox="0 0 22.577778 22.577778"
   version="1.1"
   id="svg831"
   inkscape:version="1.0 (4035a4fb49, 2020-05-01)"
   sodipodi:docname="EXPORT 64px.svg">
  <defs
     id="defs825">
    <pattern
       id="EMFhbasepattern"
       patternUnits="userSpaceOnUse"
       width="6"
       height="6"
       x="0"
       y="0" />
    <pattern
       id="EMFhbasepattern-9"
       patternUnits="userSpaceOnUse"
       width="6"
       height="6"
       x="0"
       y="0" />
    <pattern
       id="EMFhbasepattern-0"
       patternUnits="userSpaceOnUse"
       width="6"
       height="6"
       x="0"
       y="0" />
    <pattern
       id="EMFhbasepattern-7"
       patternUnits="userSpaceOnUse"
       width="6"
       height="6"
       x="0"
       y="0" />
    <pattern
       id="EMFhbasepattern-2"
       patternUnits="userSpaceOnUse"
       width="6"
       height="6"
       x="0"
       y="0" />
    <pattern
       id="EMFhbasepattern-98"
       patternUnits="userSpaceOnUse"
       width="6"
       height="6"
       x="0"
       y="0" />
    <pattern
       id="EMFhbasepattern-6"
       patternUnits="userSpaceOnUse"
       width="6"
       height="6"
       x="0"
       y="0" />
    <pattern
       id="EMFhbasepattern-01"
       patternUnits="userSpaceOnUse"
       width="6"
       height="6"
       x="0"
       y="0" />
    <pattern
       id="EMFhbasepattern-07"
       patternUnits="userSpaceOnUse"
       width="6"
       height="6"
       x="0"
       y="0" />
    <pattern
       id="EMFhbasepattern-8"
       patternUnits="userSpaceOnUse"
       width="6"
       height="6"
       x="0"
       y="0" />
    <pattern
       id="EMFhbasepattern-4"
       patternUnits="userSpaceOnUse"
       width="6"
       height="6"
       x="0"
       y="0" />
    <pattern
       id="EMFhbasepattern-40"
       patternUnits="userSpaceOnUse"
       width="6"
       height="6"
       x="0"
       y="0" />
    <pattern
       id="EMFhbasepattern-08"
       patternUnits="userSpaceOnUse"
       width="6"
       height="6"
       x="0"
       y="0" />
    <pattern
       id="EMFhbasepattern-04"
       patternUnits="userSpaceOnUse"
       width="6"
       height="6"
       x="0"
       y="0" />
    <pattern
       id="EMFhbasepattern-014"
       patternUnits="userSpaceOnUse"
       width="6"
       height="6"
       x="0"
       y="0" />
    <pattern
       id="EMFhbasepattern-27"
       patternUnits="userSpaceOnUse"
       width="6"
       height="6"
       x="0"
       y="0" />
    <pattern
       id="EMFhbasepattern-09"
       patternUnits="userSpaceOnUse"
       width="6"
       height="6"
       x="0"
       y="0" />
    <pattern
       id="EMFhbasepattern-5"
       patternUnits="userSpaceOnUse"
       width="6"
       height="6"
       x="0"
       y="0" />
    <pattern
       id="EMFhbasepattern-018"
       patternUnits="userSpaceOnUse"
       width="6"
       height="6"
       x="0"
       y="0" />
  </defs>
  <sodipodi:namedview
     id="base"
     pagecolor="#ffffff"
     bordercolor="#666666"
     borderopacity="1.0"
     inkscape:pageopacity="0.0"
     inkscape:pageshadow="2"
     inkscape:zoom="4.350364"
     inkscape:cx="17.986679"
     inkscape:cy="47.993125"
     inkscape:document-units="pt"
     inkscape:current-layer="layer1"
     showgrid="false"
     units="pt"
     inkscape:window-width="1366"
     inkscape:window-height="715"
     inkscape:window-x="-8"
     inkscape:window-y="-8"
     inkscape:window-maximized="1"
     inkscape:pagecheckerboard="true"
     inkscape:showpageshadow="false"
     inkscape:object-paths="true"
     inkscape:snap-intersection-paths="true"
     inkscape:snap-smooth-nodes="true"
     inkscape:snap-midpoints="true"
     showguides="true"
     inkscape:snap-bbox="true"
     inkscape:bbox-nodes="true"
     inkscape:snap-nodes="false"
     inkscape:snap-global="true"
     inkscape:document-rotation="0">
    <inkscape:grid
       type="xygrid"
       id="grid1378" />
    <sodipodi:guide
       position="0.97013831,21.607643"
       orientation="78.000048,0"
       id="guide1380"
       inkscape:locked="false" />
    <sodipodi:guide
       position="0.97013831,0.97013129"
       orientation="0,78.000005"
       id="guide1382"
       inkscape:locked="false" />
    <sodipodi:guide
       position="21.607639,0.97013129"
       orientation="-78.000048,0"
       id="guide1384"
       inkscape:locked="false" />
    <sodipodi:guide
       position="21.607639,21.607643"
       orientation="0,-78.000005"
       id="guide1386"
       inkscape:locked="false" />
  </sodipodi:namedview>
  <metadata
     id="metadata828">
    <rdf:RDF>
      <cc:Work
         rdf:about="">
        <dc:format>image/svg+xml</dc:format>
        <dc:type
           rdf:resource="http://purl.org/dc/dcmitype/StillImage" />
        <dc:title></dc:title>
      </cc:Work>
    </rdf:RDF>
  </metadata>
  <g
     inkscape:label="Icon"
     inkscape:groupmode="layer"
     id="layer1"
     transform="translate(0,-274.42223)">
    <path
       id="path464"
       style="color:#000000;font-style:normal;font-variant:normal;font-weight:normal;font-stretch:normal;font-size:medium;line-height:normal;font-family:sans-serif;font-variant-ligatures:normal;font-variant-position:normal;font-variant-caps:normal;font-variant-numeric:normal;font-variant-alternates:normal;font-variant-east-asian:normal;font-feature-settings:normal;font-variation-settings:normal;text-indent:0;text-align:start;text-decoration:none;text-decoration-line:none;text-decoration-style:solid;text-decoration-color:#000000;letter-spacing:normal;word-spacing:normal;text-transform:none;writing-mode:lr-tb;direction:ltr;text-orientation:mixed;dominant-baseline:auto;baseline-shift:baseline;text-anchor:start;white-space:normal;shape-padding:0;shape-margin:0;inline-size:0;clip-rule:nonzero;display:inline;overflow:visible;visibility:visible;opacity:1;isolation:auto;mix-blend-mode:normal;color-interpolation:sRGB;color-interpolation-filters:linearRGB;solid-color:#000000;solid-opacity:1;vector-effect:none;fill:#000000;fill-opacity:1;fill-rule:nonzero;stroke:none;stroke-width:0.679771;stroke-linecap:round;stroke-linejoin:round;stroke-miterlimit:4;stroke-dasharray:none;stroke-dashoffset:0;stroke-opacity:1;color-rendering:auto;image-rendering:auto;shape-rendering:auto;text-rendering:auto;enable-background:accumulate;stop-color:#000000;stop-opacity:1"
       d="m 15.765749,276.7753 5e-5,-2e-5 h 4.7e-5 c -0.05961,0.31559 -0.05949,0.64429 -0.01726,0.95725 -4.385433,2.0377 -8.7672563,4.07436 -13.1526278,6.11263 -0.4962212,0.23061 -0.9186111,0.59737 -1.2168154,1.05616 -0.00102,10e-4 -0.00166,0.003 -0.0027,0.006 -0.2659301,0.42709 -0.40441309,0.92078 -0.40361408,1.42326 -0.001664,0.0129 -0.00244,0.0261 -0.002699,0.0391 v 1.94239 c 0,0.8267 0.67890228,1.50294 1.50558568,1.50294 0.3203446,0 0.5776986,-0.16851 0.8224942,-0.34122 v 1.16638 c 0,0.82668 0.6788973,1.50291 1.5055858,1.50291 0.8266859,0 1.5029278,-0.67623 1.5029278,-1.50291 l 0.00142,-1.31175 9.4404428,4.3913 c -0.04223,0.31295 -0.04236,0.64166 0.01726,0.95723 0.358009,1.28491 1.540081,1.52219 2.65469,1.24205 0.584385,-0.1543 1.134228,-0.51329 1.434553,-1.11392 0.0038,-0.008 0.0073,-0.0148 0.01068,-0.0226 2.398132,-6.03754 2.245625,-12.61067 0,-18.11215 -1.124809,-1.82901 -3.663125,-1.58995 -4.099848,0.1056 z m 3.474628,0.17524 c 2.327966,5.85561 2.173171,12.22234 0,17.55519 -0.202564,0.39986 -0.556942,0.63958 -0.995758,0.75546 -0.798621,0.14183 -1.652879,0.0825 -1.811615,-0.71032 -0.07026,-0.37195 -0.02931,-0.83657 0.08033,-1.15109 0.03027,-0.0868 0.05575,-0.17452 0.08497,-0.26155 0.488972,0.16714 1.046013,0.21771 1.583253,0.12344 0.185315,-0.0324 0.309091,-0.20909 0.276157,-0.39431 -0.03269,-0.18473 -0.208894,-0.30804 -0.393656,-0.2755 -0.417773,0.0732 -0.875306,0.0235 -1.253992,-0.10481 0.165937,-0.55483 0.333076,-1.19264 0.45148,-1.71667 0.483952,0.18847 1.045156,0.25433 1.592548,0.1779 0.186675,-0.0251 0.317379,-0.19715 0.291424,-0.3837 -0.02637,-0.1856 -0.198051,-0.3148 -0.3837,-0.28877 -0.466386,0.0651 -0.975534,-0.0163 -1.358877,-0.18653 0.09846,-0.50823 0.183102,-1.01765 0.24695,-1.52817 0.457156,0.10998 0.95588,0.12371 1.432562,0.0187 0.182667,-0.0404 0.298378,-0.22075 0.258897,-0.40361 -0.03943,-0.18379 -0.220562,-0.30067 -0.404277,-0.26089 -0.393997,0.0868 -0.833187,0.0599 -1.213499,-0.0444 0.151933,-1.5853 0.120638,-3.19026 -0.03917,-4.65748 0.382698,-0.11212 0.829938,-0.14573 1.232746,-0.0604 0.183492,0.0395 0.364174,-0.0775 0.403614,-0.26089 0.03937,-0.1835 -0.0774,-0.36417 -0.260888,-0.40362 -0.488219,-0.10346 -0.997978,-0.0824 -1.461772,0.0379 -0.0714,-0.50477 -0.157592,-1.0086 -0.262878,-1.51092 0.377885,-0.18507 0.898745,-0.28121 1.381446,-0.22303 0.187144,0.0226 0.356918,-0.11156 0.378387,-0.29872 0.02138,-0.18644 -0.112322,-0.35491 -0.298728,-0.37641 -0.560374,-0.0676 -1.132174,0.0116 -1.617108,0.21907 -0.138042,-0.57336 -0.298137,-1.14446 -0.480619,-1.71271 0.379931,-0.1516 0.864101,-0.21889 1.307763,-0.15267 0.185483,0.0278 0.358378,-0.10009 0.386351,-0.28545 0.0277,-0.18573 -0.10039,-0.35872 -0.286112,-0.38636 -0.553469,-0.0825 -1.123385,-0.0156 -1.614455,0.17459 -0.09099,-0.31029 -0.123874,-0.72776 -0.05908,-1.07078 0.375308,-1.26797 2.274559,-0.96247 2.807373,0.0478 h -3.3e-5 z m -3.617922,3.987 c 1.5e-5,-0.001 1.5e-5,-0.003 0,-0.006 v -0.002 c -0.01156,-0.67895 -0.340567,-1.43444 -0.905473,-1.96695 l 1.196237,-0.55563 c 1.415021,4.42678 1.559776,8.89619 0.481283,13.05039 l -1.678182,-0.78001 c 0.654883,-0.55061 0.889601,-1.28049 0.897891,-2.36256 0.0083,-1.08205 -1.191302,-2.27898 -2.661,-2.27898 -1.345669,0.0332 -2.548802,1.01044 -2.665327,2.58232 l -4.1768697,-1.9424 c -0.2246942,-0.10279 -0.4804783,0.0611 -0.4812838,0.30802 l -0.0027,3.65575 c 0,0.45933 -0.3638362,0.82317 -0.8231571,0.82317 -0.4593248,0 -0.8251534,-0.36384 -0.8251534,-0.82317 v -2.32807 -1.30975 c 0,-0.45363 -0.6804323,-0.45363 -0.6804323,0 v 1.30975 c 0,0.45932 -0.3631707,0.82249 -0.8224955,0.82249 -0.4593273,0 -0.825815,-0.36317 -0.825815,-0.82249 v -1.92712 c 1.156e-4,-0.006 1.156e-4,-0.0101 0,-0.0153 1.03e-5,-0.001 1.03e-5,-0.002 0,-0.006 -0.00746,-0.38574 0.1002761,-0.76603 0.3033737,-1.094 0.2285158,-0.34968 0.5498162,-0.63182 0.9287093,-0.8079 l 1.2652732,-0.58816 c 0.2764086,1.17887 1.3359665,2.06121 2.5962748,2.06121 1.4696939,0 2.6692907,-1.20023 2.6692907,-2.66994 0.026068,-0.56764 -0.2318424,-1.18225 -0.5291126,-1.59188 l 1.4040187,-0.65256 c 0.197884,1.74048 1.457416,2.5472 2.796241,2.56509 1.338828,0.0179 2.53843,-1.17904 2.53843,-2.64875 z m -1.58989,-1.65626 c 0.529962,0.38759 0.900969,1.13995 0.91012,1.65893 -0.0015,1.10115 -0.888037,1.98686 -1.989521,1.98686 -1.347294,-0.10334 -2.022863,-1.14757 -1.967615,-2.23049 z m -0.05577,0.94861 c -0.172611,-0.18578 -0.327626,-0.1589 -0.476639,-0.0704 -0.151462,0.11189 -0.183021,0.32569 -0.07038,0.47662 0.09342,0.12564 0.145729,0.29218 0.148037,0.38636 -0.002,0.34878 -0.275328,0.62467 -0.624672,0.62467 -0.276921,0 -0.506623,-0.17553 -0.592144,-0.41887 -0.06203,-0.17772 -0.256682,-0.27117 -0.434149,-0.20845 -0.17771,0.0621 -0.271163,0.25668 -0.208445,0.43415 0.179236,0.51002 0.667783,0.87361 1.234738,0.87361 0.718106,0 1.3071,-0.58964 1.304863,-1.09016 -0.0025,-0.50049 -0.106103,-0.77195 -0.281222,-1.00757 z m -5.727599,1.7386 c 0.3006516,0.34806 0.483939,0.79947 0.483939,1.29715 0,1.10232 -0.8872023,1.98952 -1.9895221,1.98952 -0.9949525,0 -1.81325,-0.72376 -1.9636348,-1.6742 z m -0.5928069,1.14644 c -0.1879711,-7.4e-4 -0.3408443,0.15126 -0.3412117,0.33923 0,0.31983 -0.2517326,0.57157 -0.5715645,0.57157 -0.1901178,0 -0.3522362,-0.0903 -0.4567196,-0.23036 -0.1127627,-0.15058 -0.326399,-0.18094 -0.4766387,-0.0677 -0.1497772,0.11178 -0.1812128,0.32352 -0.07037,0.47398 0.2279648,0.30548 0.5952373,0.50451 1.0037251,0.50451 0.6872073,0 1.2519982,-0.56478 1.2519982,-1.25199 -3.405e-4,-0.18718 -0.152028,-0.33886 -0.3392232,-0.33922 z m 8.0118639,0.15071 c -0.214536,5.7e-4 -0.387893,0.17513 -0.387017,0.38966 10e-4,0.21324 0.173776,0.38578 0.387017,0.38635 0.214277,8.9e-4 0.388716,-0.17207 0.389672,-0.38635 10e-4,-0.21558 -0.174096,-0.39055 -0.389672,-0.38966 z m -5.045171,0.38767 c -0.214535,5.9e-4 -0.387893,0.17513 -0.387017,0.38968 6.8e-4,0.2135 0.173519,0.38642 0.387017,0.38701 0.214535,8.9e-4 0.389084,-0.17249 0.389672,-0.38701 0.001,-0.21558 -0.174096,-0.39056 -0.389672,-0.38968 z m 2.716427,0.77536 c -0.214019,9.6e-4 -0.386864,0.175 -0.386354,0.38902 6.8e-4,0.21324 0.173115,0.38605 0.386354,0.38701 0.214537,8.8e-4 0.389083,-0.17248 0.389671,-0.38701 6.81e-4,-0.21532 -0.174356,-0.3899 -0.389671,-0.38902 z m 2.716423,1.9404 c -0.214277,9.6e-4 -0.387227,0.1754 -0.38635,0.38968 10e-4,0.21298 0.173368,0.3854 0.38635,0.38636 0.214278,8.6e-4 0.388721,-0.17209 0.389675,-0.38636 0.001,-0.21557 -0.174099,-0.39057 -0.389675,-0.38968 z m -6.9855672,10e-4 c -0.2142766,9.5e-4 -0.3872306,0.1754 -0.3863546,0.38967 0.00102,0.21299 0.1733735,0.38541 0.3863546,0.38636 0.2142765,8.9e-4 0.3887173,-0.17207 0.389672,-0.38636 0.00102,-0.21557 -0.1740966,-0.39055 -0.389672,-0.38967 z m 5.8723122,2.33007 c -0.0091,0.51896 -0.380217,1.27064 -0.910121,1.65827 l -3.047016,-1.41662 c -0.167622,-1.66397 1.167445,-2.20295 1.982707,-2.22652 1.086388,0 1.973084,0.88372 1.97443,1.98487 z m -3.116054,-0.46933 c -0.06056,0.17802 0.03493,0.37137 0.213091,0.4315 0.178015,0.0605 0.371367,-0.035 0.431494,-0.21309 0.06764,-0.19945 0.255257,-0.34388 0.481947,-0.34388 0.283211,0 0.502321,0.2219 0.504516,0.50452 -0.002,0.0722 -0.04541,0.21496 -0.123476,0.31865 -0.113226,0.15023 -0.08288,0.36387 0.06771,0.47664 0.150353,0.11368 0.364501,0.0832 0.477303,-0.0677 0.161618,-0.21465 0.256741,-0.45971 0.258815,-0.91865 0.002,-0.45894 -0.532876,-0.99321 -1.118515,-0.99321 -0.585636,0 -1.03355,0.3354 -1.192889,0.80523 z m -5.5171617,-0.71296 c 3.6946837,1.7192 6.3663957,2.95875 9.8991547,4.60039 -0.09179,0.30939 -0.190098,0.61822 -0.295407,0.92606 l -9.6044087,-4.46684 z"
       sodipodi:nodetypes="cccccccccsscssccccccccccsccccccccccccccccccccccccccccccccccccccccscccccccsscsssssccccccsccccccccccccsscccscccssscccscccscccccccccccccccccccccccccccscccccccccccscsccccccccc" />
  </g>
</svg>
