<?xml version="1.0" encoding="utf-8"?>

<!DOCTYPE svg PUBLIC "-//W3C//DTD SVG 1.1//EN" "http://www.w3.org/Graphics/SVG/1.1/DTD/svg11.dtd">

<svg height="800px" width="800px" version="1.1" id="_x32_" xmlns="http://www.w3.org/2000/svg" xmlns:xlink="http://www.w3.org/1999/xlink" 
	 viewBox="0 0 512 512"  xml:space="preserve">
<style type="text/css">
	.st0{fill:#000000;}
</style>
<g>
	<path class="st0" d="M495.792,417.591L94.409,16.196c-21.597-21.574-56.598-21.585-78.194,0
		C-5.403,37.814-5.403,72.804,16.204,94.401l401.384,401.395c21.607,21.586,56.608,21.597,78.216,0
		C517.401,474.189,517.401,439.187,495.792,417.591z M475.073,475.066c-5.125,5.112-11.675,7.595-18.383,7.63
		c-6.686-0.035-13.248-2.529-18.372-7.63L309.798,346.543l36.743-36.754l128.532,128.521c5.089,5.124,7.595,11.675,7.618,18.383
		C482.657,463.39,480.174,469.964,475.073,475.066z"/>
</g>
</svg>