<?xml version="1.0" encoding="utf-8"?>

<!DOCTYPE svg PUBLIC "-//W3C//DTD SVG 1.1//EN" "http://www.w3.org/Graphics/SVG/1.1/DTD/svg11.dtd">

<svg height="800px" width="800px" version="1.1" id="_x32_" xmlns="http://www.w3.org/2000/svg" xmlns:xlink="http://www.w3.org/1999/xlink" 
	 viewBox="0 0 512 512"  xml:space="preserve">
<style type="text/css">
	.st0{fill:#000000;}
</style>
<g>
	<path class="st0" d="M319.234,124.886c-5.404,0.908-10.638,2.32-15.539,4.317c-8.309,3.327-16.038,8.147-21.771,13.623
		c-3.075,2.832-5.067,5.574-6.478,7.652c-0.086,0-0.086,0.082-0.086,0.163c-0.248,0.332-0.998,1.663-1.164,1.914
		c-0.662,1.161-4.792,7.246-7.559,12.131c-4.321,7.311-8.974,16.034-12.131,24.172c-0.085,0.251-2.162,7.562-2.742,9.307
		c-2.576,7.068-5.652,12.715-9.388,17.454c-2.828,3.57-5.984,6.646-9.725,9.469c-5.733,4.236-13.044,7.976-22.931,10.8
		c-1.664,0.503-3.323,0.917-5.068,1.331c-0.332,0.081-0.665,0.17-0.998,0.252c-1.744,0.414-3.489,0.746-5.319,1.078
		c-7.558,1.412-16.2,2.329-26.006,2.572c-20.193,0.584-36.06,17.372-35.48,37.48c0.499,20.188,17.364,36.06,37.471,35.475
		c23.848-0.584,45.452-4.074,64.98-10.97c9.221-3.238,17.782-7.393,25.925-12.213c0.994-0.584,2.077-1.241,3.156-1.906
		c1.078-0.666,2.158-1.412,3.242-2.077c2.572-1.745,5.068-3.49,7.392-5.404c8.808-6.897,16.537-14.874,23.016-23.677
		c1.164-1.583,2.244-3.156,3.323-4.739c0.832-1.25,1.582-2.491,2.328-3.659c0.248-0.414,0.499-0.746,0.747-1.08
		c6.484-10.718,11.384-22.346,14.959-34.477c4.568-15.79,6.812-32.408,7.311-49.772c0.08-0.998,0.08-2.077,0.08-3.157
		c0-13.129-2.657-25.844-7.144-37.56C322.224,124.051,320.727,124.553,319.234,124.886z"/>
	<path class="st0" d="M316.021,268.167c-7.466,10.11-16.29,19.223-26.213,27.028c-4.09,3.221-8.552,6.289-13.284,9.186
		c1.782,0.601,3.583,1.16,5.404,1.688c17.057,4.934,35.569,7.49,55.672,8.05c20.16,0.559,36.957-15.336,37.52-35.492
		c0.552-20.156-15.339-36.953-35.495-37.52c-2.994-0.082-5.83-0.236-8.613-0.43c-0.228,1.931-0.792,3.846-1.68,5.639
		C325.425,254.162,320.942,261.505,316.021,268.167z"/>
	<path class="st0" d="M485.58,128.376c-8.974-16.124-20.277-31.159-33.986-44.369c-13.709-13.3-29.828-24.764-47.944-33.82
		c-23.43-11.716-48.109-16.95-71.705-16.95c-19.361,0-38.137,3.489-55.421,9.559c-7.064,2.572-13.875,5.566-20.525,8.885
		c0,0,0,0.081-0.08,0.081c-2.662,1.33-5.32,2.742-7.895,4.325c-2.658,1.493-5.234,3.075-7.725,4.82
		c-16.703,11.051-31.078,25.089-41.711,41.959c-5.32,8.39-9.64,17.616-12.715,27.336c-2.99,9.802-4.734,20.107-4.734,30.745
		c0,1.08,0.08,2.159,0.08,3.157c0.666,20.602,3.656,40.133,10.139,58.414c0,0.081,0,0.081,0,0.081
		c1.245-0.503,2.41-0.916,3.736-1.16c3.494-0.584,6.817-1.331,9.726-2.248c7.226-2.077,12.877-4.739,17.446-8.058
		c2.495-1.914,4.572-3.821,6.483-6.232c2.658-3.408,4.82-7.562,6.565-12.544c1.493-4.074,2.657-8.893,3.489-14.217
		c0.082-0.414,0.166-0.746,0.248-1.079v-0.081c0.418-1.745,0.998-3.408,1.911-4.82c4.738-10.386,16.95-29.163,22.436-34.81
		c0.085-0.09,0.498-0.504,0.58-0.504c1.744-2.239,3.74-4.406,5.984-6.564c7.064-6.808,16.532-12.959,27.252-17.195
		c1.498-0.584,2.994-1.168,4.487-1.663c0.252-0.081,0.5-0.17,0.832-0.251c1.246-0.414,2.576-0.828,3.822-1.25
		c0.166,0,0.418-0.081,0.584-0.163c1.412-0.332,2.905-0.746,4.321-1.078c0.082,0,0.162,0,0.162,0
		c1.583-0.333,3.242-0.666,4.82-0.999c4.82-0.828,9.64-1.33,14.541-1.33h1.165c13.044,0,26.172,2.743,39.054,9.145
		c11.546,5.81,21.433,12.878,29.828,21.016c12.545,12.13,21.936,26.761,28.416,43.208c6.398,16.455,9.72,34.728,9.72,53.675
		c0,20.61-3.903,41.878-11.712,61.985c-5.818,15.125-13.794,29.584-23.848,42.705c-15.04,19.613-34.567,36.311-58.828,48.361
		c-24.261,11.88-53.51,19.28-88.575,19.28c-31.239,0-57.745-5.818-80.347-15.54c-16.95-7.23-31.658-16.698-44.368-27.832
		c-19.113-16.707-33.654-37.147-43.456-59.493c-9.806-22.274-14.792-46.284-14.792-69.466c0-25.259,5.899-49.35,17.117-69.466
		c5.651-10.135,12.63-19.352,21.024-27.418c8.39-8.138,18.196-15.206,29.828-21.016c12.297-6.151,24.845-8.893,37.39-9.145
		c0.248-2.491,0.912-4.982,2.158-7.23c1.084-1.826,2.163-3.741,3.327-5.486c11.547-18.443,27.338-34.315,46.779-47.273
		c1.664-1.079,3.575-2.248,5.32-3.327c-17.45-6.232-36.312-9.722-55.92-9.802c-23.681,0-48.361,5.234-71.71,16.95
		c-18.196,9.056-34.23,20.52-47.943,33.82c-20.606,19.856-35.808,43.704-45.7,69.206C4.739,178.805,0,206.061,0,233.398
		c0,29.828,5.57,59.826,16.536,88.324c8.309,21.356,19.608,41.877,33.902,60.654c21.518,28.172,49.934,52.515,84.668,69.547
		c34.648,17.122,75.446,26.842,120.894,26.842c40.385,0,77.11-7.643,109.1-21.438c24.01-10.305,45.281-23.929,63.644-39.97
		c27.588-24.091,48.361-53.506,62.236-84.997c13.875-31.572,21.02-65.392,21.02-98.962C512,196.924,503.525,160.614,485.58,128.376z
		"/>
</g>
</svg>