<?xml version="1.0" encoding="utf-8"?>

<!DOCTYPE svg PUBLIC "-//W3C//DTD SVG 1.1//EN" "http://www.w3.org/Graphics/SVG/1.1/DTD/svg11.dtd">

<svg version="1.1" id="_x32_" xmlns="http://www.w3.org/2000/svg" xmlns:xlink="http://www.w3.org/1999/xlink" 
	 width="800px" height="800px" viewBox="0 0 512 512"  xml:space="preserve">
<style type="text/css">
<![CDATA[
	.st0{fill:#000000;}
]]>
</style>
<g>
	<path class="st0" d="M507.819,142.033c-5.438-14.125-15.531-23.813-27.297-27.938c-0.766,1.891-1.625,3.766-2.609,5.594
		c-2.984,5.688-6.906,11.109-11.75,15.938c-0.969,0.969-1.969,1.875-3,2.703c-1.25,1.031-2.531,1.953-3.828,2.797
		c-4.141,2.688-8.391,4.563-12.469,5.984c-6.109,2.156-11.859,3.25-16.188,3.906c-2.531,0.359-4.547,0.547-5.844,0.656
		c-0.922,0.453-1.766,1.078-2.469,1.797c-0.5,0.469-0.938,1.031-1.313,1.625c-0.328,1.453-0.906,3.734-1.891,6.484
		c-0.828,2.266-1.922,4.859-3.484,7.578s-3.563,5.578-6.25,8.281c-2.219,2.219-4.625,4.047-7.031,5.484
		c-4.266,2.563-8.531,4.031-12.484,4.984c-4.594,1.047-8.844,1.406-12.391,1.453l-0.016,0.063c-0.781,1.344-1.703,2.578-2.734,3.672
		c-0.781-1.609-1.563-3.234-2.406-4.859l-1.016-1.969l-10.578-10.578c3.297-2.469,7-4.281,10.828-5.219l1.641-0.406l1.5,0.25
		l0.125,0.016c0.125,0.016,0.313,0.047,0.563,0.094c0.516,0.047,1.313,0.141,2.313,0.219c1.984,0.141,4.781,0.219,7.813-0.016
		c2.031-0.156,4.172-0.453,6.188-0.938c2.734-0.625,5.25-1.594,7.219-2.781c1.125-0.672,2.078-1.422,2.906-2.25
		c0.938-0.922,1.844-2.141,2.656-3.516s1.516-2.922,2.078-4.359c1.094-2.906,1.578-5.406,1.609-5.672l0.234-1.359l0.641-1.328
		c1.547-3.203,3.688-6.156,6.219-8.688c3.328-3.344,7.375-5.953,11.656-7.484l1.313-0.469l1.25-0.063h0.016h0.047
		c0.047,0,0.156,0,0.281-0.016c0.266-0.016,0.672-0.047,1.203-0.094c1.063-0.094,2.625-0.25,4.5-0.516
		c3.734-0.563,8.75-1.563,13.453-3.219c0.906-0.297,1.781-0.641,2.656-1.016c2.141-0.875,4.141-1.891,5.797-2.969
		c1.344-0.875,2.453-1.781,3.344-2.672c3.359-3.344,6.047-7.047,8.156-11.078c2.141-4.031,3.656-8.391,4.547-12.969
		c1.781-9.141,0.938-19.109-2.813-28.344c-2.5-6.141-6.266-11.969-11.328-17.031c-5.688-5.672-12.344-9.719-19.359-12.172
		c-7.016-2.438-14.344-3.266-21.375-2.578c-4.703,0.453-9.234,1.578-13.469,3.297c-5.641,2.297-10.734,5.625-15.188,10.078
		c-1.328,1.328-2.656,3.156-3.875,5.406c-0.641,1.156-1.234,2.422-1.781,3.75c-0.5,1.219-0.969,2.469-1.375,3.75
		c-1.766,5.344-2.688,10.906-3.109,14.484c-0.281,2.375-0.359,3.875-0.359,3.875l-0.047,1.313l-0.469,1.297
		c-1.531,4.297-4.141,8.344-7.484,11.672c-2.516,2.531-5.484,4.672-8.672,6.219l-1.328,0.656l-1.344,0.219l-0.094,0.016
		c-0.109,0.016-0.313,0.047-0.563,0.125c-0.547,0.094-1.359,0.297-2.328,0.578c-1.953,0.563-4.547,1.531-6.781,2.828
		c-1.5,0.859-2.813,1.828-3.797,2.813c-0.906,0.906-1.703,1.969-2.438,3.219c-0.719,1.25-1.344,2.734-1.875,4.328
		c-1.047,3.172-1.578,6.859-1.734,10.125c-0.094,2.188-0.047,4.172,0.031,5.781c0.141,2.109,0.359,3.516,0.375,3.672l0.266,1.516
		l-0.422,1.641c-0.922,3.813-2.75,7.516-5.188,10.797l-10.219-10.219l-1.969-1c-1.563-0.813-3.125-1.578-4.672-2.313
		c1.063-1.016,2.281-1.922,3.594-2.672l0.063-0.016c0.047-3.547,0.406-7.797,1.453-12.391c0.938-3.969,2.406-8.219,4.953-12.484
		c1.453-2.422,3.266-4.813,5.5-7.047c2.688-2.688,5.547-4.688,8.266-6.25c2.719-1.578,5.313-2.672,7.594-3.5
		c2.734-0.984,5-1.563,6.453-1.875c0.609-0.391,1.156-0.828,1.641-1.328c0.719-0.703,1.328-1.547,1.797-2.484
		c0.094-1.266,0.297-3.313,0.656-5.828c0.641-4.328,1.734-10.078,3.875-16.203c1.422-4.063,3.297-8.328,5.984-12.469
		c0.844-1.297,1.75-2.578,2.781-3.828c0.828-1.016,1.734-2.031,2.703-3c4.828-4.828,10.25-8.766,15.922-11.766
		c1.844-0.969,3.703-1.844,5.594-2.609c-4.125-11.766-13.813-21.844-27.953-27.266c-27.234-10.422-60.578,0.453-74.469,24.266
		c-6.109,10.469-3.422,24.828-1.953,30.656c0.422,1.625,0.734,2.578,0.734,2.578c-0.156,4.375-2.453,8.844-6.219,12.141
		c0,0-10.266,4.906-14.984,13c-7.828,13.406,2.547,29.688,2.547,29.688c0.234,2.547-0.328,5.188-1.5,7.625
		c-12.547-1.109-24.766,0.094-36.516,3.297c-9.031,2.438-17.766,6.047-26.313,10.563c-12.813,6.766-25.234,15.594-37.844,26
		s-25.406,22.406-38.922,35.672c-2.75,2.703-5.578,5.5-8.484,8.406c-17.906,17.906-38.125,39.734-56.25,69.656
		c-9.063,14.953-17.594,31.938-25.141,51.422c-7.516,19.469-14.031,41.438-19.109,66.438c-1.547,7.672-2.484,13.907-3.234,19.172
		c-0.578,3.938-1.047,7.297-1.594,10.344c-0.828,4.578-1.781,8.484-3.594,13.375c-1.844,4.875-4.594,10.813-9.078,18.797
		c-1.781,3.188-3.266,6.625-4.469,10.281c-0.906,2.734-1.672,5.578-2.188,8.531c-0.391,2.188-0.672,4.453-0.781,6.781
		c-0.141,3.469,0.047,7.094,1.031,10.922c0.5,1.906,1.219,3.875,2.266,5.844c1.031,1.953,2.391,3.906,4.141,5.641
		c2.219,2.234,4.813,3.844,7.328,4.875c2.203,0.922,4.359,1.438,6.391,1.75c3.578,0.5,6.844,0.375,9.922,0
		c4.609-0.594,8.859-1.766,12.75-3.125c3.859-1.359,7.313-2.891,10.234-4.453l-6.625-12.484l6.641,12.484
		c6.469-3.453,11.672-5.859,16.219-7.641c3.422-1.328,6.469-2.328,9.531-3.172c2.297-0.609,4.594-1.156,7.047-1.656
		c3.703-0.75,7.75-1.438,12.5-2.234c4.734-0.797,10.156-1.703,16.516-2.922c24.484-4.688,45.844-10.641,64.688-17.516
		c28.219-10.281,50.75-22.672,69.375-35.766c18.641-13.078,33.359-26.813,46.156-39.625c5.594-5.578,10.828-11,15.828-16.094h0.016
		c15.391-15.688,29.094-30.422,40.563-45c8.609-10.938,15.969-21.813,21.75-33c4.344-8.391,7.781-16.953,10.125-25.813
		c1.75-6.625,2.891-13.422,3.313-20.344c0.313-5.016,0.25-10.109-0.203-15.25c2.5-1.234,5.188-1.828,7.797-1.594
		c0,0,16.313,10.344,29.703,2.531c8.078-4.734,12.984-15,12.984-15c3.281-3.766,7.75-6.078,12.125-6.234
		c0,0,0.953,0.328,2.594,0.734c5.813,1.469,20.188,4.141,30.641-1.984C507.413,202.611,518.241,169.267,507.819,142.033z
		 M426.71,76.626l7.891,7.891l-82.469,82.531l-7.891-7.906L426.71,76.626z M342.897,39.626l9.672,3.703l-50.625,86.719
		c-1.641-0.578-3.281-1.109-4.922-1.594c-1.719-0.531-3.422-0.984-5.141-1.438L342.897,39.626z M357.147,266.97
		c-1.813,6.719-4.578,13.516-8.281,20.516c-5.531,10.5-13.219,21.438-22.813,33.063c-9.578,11.609-21.047,23.891-34.031,37.094
		c-5.141,5.234-10.297,10.563-15.656,15.922c-16.375,16.375-34.672,33.016-60.375,47.969c-12.844,7.484-27.563,14.547-44.859,20.844
		c-17.297,6.313-37.172,11.875-60.313,16.313c-7.094,1.359-13,2.313-18.453,3.234c-4.109,0.688-7.984,1.359-11.875,2.188
		c-5.828,1.219-11.734,2.813-18.109,5.188c-6.406,2.391-13.25,5.516-21.328,9.828c-1.344,0.703-3.313,1.609-5.406,2.391
		c-1.578,0.594-3.219,1.109-4.766,1.5c-0.828,0.188-1.625,0.359-2.344,0.469c0.125-1.719,0.531-3.922,1.156-6.063
		c0.734-2.5,1.766-4.938,2.688-6.547c4.406-7.859,7.609-14.453,10.016-20.484c1.797-4.516,3.141-8.719,4.156-12.734
		c0.75-3.016,1.328-5.891,1.828-8.719c0.734-4.25,1.266-8.359,1.938-12.813c0.656-4.453,1.422-9.313,2.609-15.141
		c4.766-23.531,10.844-43.953,17.766-61.875c9.625-24.875,20.859-44.938,32.703-61.922l26.234,26.234l8-8l-27.5-27.516
		c11.719-15.5,23.859-28.359,35.563-40.063c2.797-2.797,5.578-5.531,8.313-8.219c2.484-2.453,4.938-4.828,7.359-7.156l40.281,40.281
		l8.016-8.016l-40.094-40.078c9.453-8.859,18.453-16.766,27.094-23.547c9.938-7.828,19.375-14.141,28.5-18.859
		c6.844-3.531,13.469-6.156,20.063-7.906c4.938-1.313,9.859-2.109,14.844-2.422c7.484-0.453,15.188,0.188,23.5,2.172
		c7.75,1.859,16.047,4.922,25,9.375l39.609,39.625c3.453,6.938,6.063,13.469,7.938,19.672c1.781,5.922,2.875,11.531,3.406,16.922
		C360.413,249.158,359.569,258.001,357.147,266.97z M384.663,219.955c-0.844-3.344-1.844-6.703-3-10.078l86.797-50.75l3.688,9.656
		L384.663,219.955z"/>
</g>
</svg>