<?xml version="1.0" encoding="utf-8"?>

<!DOCTYPE svg PUBLIC "-//W3C//DTD SVG 1.1//EN" "http://www.w3.org/Graphics/SVG/1.1/DTD/svg11.dtd">

<svg height="800px" width="800px" version="1.1" id="_x32_" xmlns="http://www.w3.org/2000/svg" xmlns:xlink="http://www.w3.org/1999/xlink" 
	 viewBox="0 0 512 512"  xml:space="preserve">
<style type="text/css">
	.st0{fill:#000000;}
</style>
<g>
	<path class="st0" d="M256,0C114.598,0.01,0.019,114.599,0,256c0.019,141.402,114.598,255.991,256,256
		c141.402-0.009,256-114.598,256-256C512,114.599,397.402,0.01,256,0z M409.692,409.692
		c-39.383,39.374-93.598,63.654-153.692,63.664c-60.074-0.01-114.308-24.29-153.691-63.664
		C62.935,370.309,38.664,316.085,38.645,256c0.019-60.084,24.29-114.308,63.664-153.691C141.692,62.935,195.926,38.654,256,38.645
		c60.093,0.01,114.309,24.29,153.692,63.664c39.374,39.383,63.663,93.607,63.663,153.691
		C473.355,316.085,449.066,370.309,409.692,409.692z"/>
	<path class="st0" d="M256,385.188c-3.289,0-7.364,4.224-8.514,13.589c-1.094,9.084,3.822,13.635,8.514,13.635
		c4.71,0,9.654-4.552,8.532-13.635C263.411,389.412,259.308,385.188,256,385.188z"/>
	<path class="st0" d="M256,126.795c3.308,0,7.411-4.224,8.532-13.57c1.122-9.103-3.822-13.636-8.532-13.636
		c-4.71,0-9.608,4.532-8.533,13.636C248.636,122.571,252.711,126.795,256,126.795z"/>
	<path class="st0" d="M320.589,367.879c-2.85,1.654-4.28,7.364-0.57,16.038c3.57,8.411,10.102,9.878,14.186,7.532
		c4.085-2.346,6.084-8.758,0.57-16.065C329.103,367.842,323.449,366.244,320.589,367.879z"/>
	<path class="st0" d="M191.412,144.104c2.851-1.636,4.28-7.365,0.588-16.019c-3.589-8.43-10.14-9.878-14.206-7.551
		c-4.084,2.364-6.056,8.756-0.569,16.083C182.879,144.141,188.552,145.757,191.412,144.104z"/>
	<path class="st0" d="M383.916,320c-8.672-3.691-14.383-2.262-16.036,0.59c-1.636,2.86-0.019,8.514,7.532,14.187
		c7.299,5.486,13.71,3.514,16.056-0.57C393.813,330.122,392.346,323.589,383.916,320z"/>
	<path class="st0" d="M136.636,177.225c-7.328-5.514-13.739-3.486-16.084,0.57c-2.346,4.084-0.879,10.616,7.532,14.205
		c8.674,3.692,14.383,2.262,16.038-0.588C145.775,188.552,144.159,182.879,136.636,177.225z"/>
	<path class="st0" d="M398.794,247.467c-9.364,1.122-13.588,5.224-13.588,8.533c0,3.29,4.224,7.383,13.588,8.514
		c9.084,1.094,13.635-3.822,13.617-8.532C412.412,251.29,407.897,246.347,398.794,247.467z"/>
	<path class="st0" d="M126.813,256c0-3.289-4.224-7.411-13.588-8.533c-9.084-1.12-13.608,3.823-13.636,8.515
		c0,4.71,4.552,9.626,13.636,8.551C122.589,263.383,126.813,259.29,126.813,256z"/>
	<path class="st0" d="M383.916,191.982c8.411-3.571,9.898-10.122,7.533-14.187c-2.346-4.085-8.738-6.085-16.066-0.57
		c-7.523,5.673-9.139,11.327-7.504,14.187C369.533,194.262,375.244,195.692,383.916,191.982z"/>
	<path class="st0" d="M128.084,320c-8.411,3.589-9.878,10.14-7.532,14.206c2.346,4.084,8.756,6.056,16.084,0.57
		c7.523-5.654,9.139-11.309,7.486-14.159C142.467,317.758,136.738,316.309,128.084,320z"/>
	<path class="st0" d="M334.776,136.617c5.514-7.327,3.514-13.738-0.57-16.083c-4.084-2.346-10.617-0.879-14.186,7.551
		c-3.692,8.673-2.262,14.384,0.598,16.037C323.467,145.776,329.121,144.169,334.776,136.617z"/>
	<path class="st0" d="M177.243,375.384c-5.505,7.308-3.504,13.719,0.551,16.065c4.084,2.346,10.617,0.879,14.225-7.532
		c3.673-8.674,2.243-14.365-0.588-16.02C188.57,366.244,182.879,367.86,177.243,375.384z"/>
	<path class="st0" d="M256,150.225c-58.327,0-105.607,47.29-105.607,105.616c0,58.336,47.28,105.618,105.607,105.618
		c58.336,0,105.626-47.281,105.626-105.618C361.626,197.514,314.336,150.225,256,150.225z M256,301.375
		c-25.14,0-45.533-20.375-45.533-45.534c0-25.149,20.393-45.533,45.533-45.533c25.15,0,45.542,20.384,45.542,45.533
		C301.542,281,281.15,301.375,256,301.375z"/>
</g>
</svg>