<?xml version="1.0" encoding="utf-8"?>

<!DOCTYPE svg PUBLIC "-//W3C//DTD SVG 1.1//EN" "http://www.w3.org/Graphics/SVG/1.1/DTD/svg11.dtd">

<svg height="800px" width="800px" version="1.1" id="_x32_" xmlns="http://www.w3.org/2000/svg" xmlns:xlink="http://www.w3.org/1999/xlink" 
	 viewBox="0 0 512 512"  xml:space="preserve">
<style type="text/css">
	.st0{fill:#000000;}
</style>
<g>
	<path class="st0" d="M295.299,122.779v68.723c0,8.874-4.564,13.118-11.562,13.118c-6.396,0-13.014-5.256-13.014-11.532v-71.47
		c-4.884-0.127-9.76-0.305-14.681-0.305c-4.944,0-9.849,0.178-14.77,0.305v71.47c0,6.276-6.619,11.532-13.014,11.532
		c-6.991,0-11.562-4.243-11.562-13.118v-68.723c-9.976,0.7-19.893,1.579-29.697,2.807c-3.551,24.337-7.4,54.533-7.713,74.21
		c-0.573,35.735,21.702,63.75,36.822,77.18c8.48,7.542,17.733,15.053,17.733,27.412l-5.718,181.407
		c-0.111,6.909,2.546,13.58,7.393,18.508c4.838,4.928,11.457,7.698,18.366,7.698h4.229c6.909,0,13.527-2.77,18.366-7.698
		c4.847-4.928,7.512-11.598,7.392-18.508l-5.718-181.407c0-12.358,9.254-19.87,17.734-27.412
		c15.12-13.43,37.396-41.445,36.822-77.18c-0.313-19.677-4.162-49.873-7.713-74.217C315.191,124.35,305.275,123.472,295.299,122.779
		z"/>
	<path class="st0" d="M449.555,32.756l-0.007-0.007C390.451,11.658,324.922,0.007,255.998,0
		c-68.916,0.007-134.453,11.658-193.55,32.75c-25.803,9.217-39.256,37.604-30.039,63.407c9.209,25.803,37.596,39.249,63.4,30.047
		c48.094-17.182,102.485-26.98,160.19-26.98c57.704,0,112.104,9.798,160.19,26.972c25.804,9.209,54.19-4.236,63.407-30.04
		C488.804,70.353,475.351,41.973,449.555,32.756z"/>
</g>
</svg>